<?xml version="1.0" encoding="utf-8"?>
<!-- Generator: Adobe Illustrator 13.0.1, SVG Export Plug-In . SVG Version: 6.00 Build 14948)  -->
<!DOCTYPE svg PUBLIC "-//W3C//DTD SVG 1.1//EN" "http://www.w3.org/Graphics/SVG/1.1/DTD/svg11.dtd">
<svg version="1.1" id="Layer_1" xmlns="http://www.w3.org/2000/svg" xmlns:xlink="http://www.w3.org/1999/xlink" x="0px" y="0px"
	 width="14px" height="14px" viewBox="0 0 14 14" enable-background="new 0 0 14 14" xml:space="preserve">
<path fill-rule="evenodd" clip-rule="evenodd" fill="#FFFFFF" d="M12.521,14H0.918C0.411,14,0,13.589,0,13.082V0.918
	C0,0.411,0.411,0,0.918,0h1.097c0,0,0,3.381,0,4.59c0,0.325,0.149,0.459,0.412,0.459c1.271,0,5.129,0,6.474,0
	c0.273,0,0.619-0.27,0.619-0.569c0-1.209,0-4.479,0-4.479h1.166l2.754,2.983v10.099C13.439,13.589,13.029,14,12.521,14z
	 M11.654,6.886c0-0.254-0.201-0.46-0.448-0.46H2.463c-0.247,0-0.448,0.206-0.448,0.46v5.278c0,0.254,0.201,0.459,0.448,0.459h8.743
	c0.247,0,0.448-0.205,0.448-0.459V6.886z M10.048,11.476H3.392c-0.253,0-0.459-0.206-0.459-0.459c0-0.254,0.206-0.459,0.459-0.459
	h6.656c0.254,0,0.459,0.205,0.459,0.459C10.507,11.27,10.302,11.476,10.048,11.476z M10.048,9.181H3.392
	c-0.253,0-0.459-0.206-0.459-0.46c0-0.253,0.206-0.458,0.459-0.458h6.656c0.254,0,0.459,0.205,0.459,0.458
	C10.507,8.975,10.302,9.181,10.048,9.181z M7.752,4.36H5.688c-0.254,0-0.46-0.205-0.46-0.459V0.918c0-0.253,0.206-0.459,0.46-0.459
	h2.064c0.254,0,0.46,0.206,0.46,0.459v2.983C8.212,4.155,8.006,4.36,7.752,4.36z"/>
</svg>
